<svg xmlns="http://www.w3.org/2000/svg" width="900" height="506">
<polygon points="29.21,0.00 14.61,25.30 -14.61,25.30 -29.21,0.00 -14.61,-25.30 14.61,-25.30" fill="#18c3ef" stroke="none" />
<polygon points="29.21,50.60 14.61,75.90 -14.61,75.90 -29.21,50.60 -14.61,25.30 14.61,25.30" fill="#1abbf6" stroke="none" />
<polygon points="29.21,101.20 14.61,126.50 -14.61,126.50 -29.21,101.20 -14.61,75.90 14.61,75.90" fill="#25c6eb" stroke="none" />
<polygon points="29.21,151.80 14.61,177.10 -14.61,177.10 -29.21,151.80 -14.61,126.50 14.61,126.50" fill="#43dddc" stroke="none" />
<polygon points="29.21,202.40 14.61,227.70 -14.61,227.70 -29.21,202.40 -14.61,177.10 14.61,177.10" fill="#4cd8d7" stroke="none" />
<polygon points="29.21,253.00 14.61,278.30 -14.61,278.30 -29.21,253.00 -14.61,227.70 14.61,227.70" fill="#b89c9b" stroke="none" />
<polygon points="29.21,303.60 14.61,328.90 -14.61,328.90 -29.21,303.60 -14.61,278.30 14.61,278.30" fill="#e18882" stroke="none" />
<polygon points="29.21,354.20 14.61,379.50 -14.61,379.50 -29.21,354.20 -14.61,328.90 14.61,328.90" fill="#fb7379" stroke="none" />
<polygon points="29.21,404.80 14.61,430.10 -14.61,430.10 -29.21,404.80 -14.61,379.50 14.61,379.50" fill="#c26379" stroke="none" />
<polygon points="29.21,455.40 14.61,480.70 -14.61,480.70 -29.21,455.40 -14.61,430.10 14.61,430.10" fill="#875884" stroke="none" />
<polygon points="29.21,506.00 14.61,531.30 -14.61,531.30 -29.21,506.00 -14.61,480.70 14.61,480.70" fill="#306286" stroke="none" />
<polygon points="73.03,25.30 58.43,50.60 29.21,50.60 14.61,25.30 29.21,0.00 58.43,0.00" fill="#1abcf5" stroke="none" />
<polygon points="73.03,75.90 58.43,101.20 29.21,101.20 14.61,75.90 29.21,50.60 58.43,50.60" fill="#1cb5fa" stroke="none" />
<polygon points="73.03,126.50 58.43,151.80 29.21,151.80 14.61,126.50 29.21,101.20 58.43,101.20" fill="#1fb6f9" stroke="none" />
<polygon points="73.03,177.10 58.43,202.40 29.21,202.40 14.61,177.10 29.21,151.80 58.43,151.80" fill="#32cae7" stroke="none" />
<polygon points="73.03,227.70 58.43,253.00 29.21,253.00 14.61,227.70 29.21,202.40 58.43,202.40" fill="#60d3c8" stroke="none" />
<polygon points="73.03,278.30 58.43,303.60 29.21,303.60 14.61,278.30 29.21,253.00 58.43,253.00" fill="#dd9d83" stroke="none" />
<polygon points="73.03,328.90 58.43,354.20 29.21,354.20 14.61,328.90 29.21,303.60 58.43,303.60" fill="#e6727c" stroke="none" />
<polygon points="73.03,379.50 58.43,404.80 29.21,404.80 14.61,379.50 29.21,354.20 58.43,354.20" fill="#c6637f" stroke="none" />
<polygon points="73.03,430.10 58.43,455.40 29.21,455.40 14.61,430.10 29.21,404.80 58.43,404.80" fill="#5c6082" stroke="none" />
<polygon points="73.03,480.70 58.43,506.00 29.21,506.00 14.61,480.70 29.21,455.40 58.43,455.40" fill="#296486" stroke="none" />
<polygon points="73.03,-25.30 58.43,0.00 29.21,0.00 14.61,-25.30 29.21,-50.60 58.43,-50.60" fill="#19bff3" stroke="none" />
<polygon points="116.86,0.00 102.25,25.30 73.03,25.30 58.43,0.00 73.03,-25.30 102.25,-25.30" fill="#1bb4fa" stroke="none" />
<polygon points="116.86,50.60 102.25,75.90 73.03,75.90 58.43,50.60 73.03,25.30 102.25,25.30" fill="#1bb0fb" stroke="none" />
<polygon points="116.86,101.20 102.25,126.50 73.03,126.50 58.43,101.20 73.03,75.90 102.25,75.90" fill="#1cb1fc" stroke="none" />
<polygon points="116.86,151.80 102.25,177.10 73.03,177.10 58.43,151.80 73.03,126.50 102.25,126.50" fill="#22b6f7" stroke="none" />
<polygon points="116.86,202.40 102.25,227.70 73.03,227.70 58.43,202.40 73.03,177.10 102.25,177.10" fill="#66c1c6" stroke="none" />
<polygon points="116.86,253.00 102.25,278.30 73.03,278.30 58.43,253.00 73.03,227.70 102.25,227.70" fill="#c2bb91" stroke="none" />
<polygon points="116.86,303.60 102.25,328.90 73.03,328.90 58.43,303.60 73.03,278.30 102.25,278.30" fill="#f87973" stroke="none" />
<polygon points="116.86,354.20 102.25,379.50 73.03,379.50 58.43,354.20 73.03,328.90 102.25,328.90" fill="#9d617c" stroke="none" />
<polygon points="116.86,404.80 102.25,430.10 73.03,430.10 58.43,404.80 73.03,379.50 102.25,379.50" fill="#416084" stroke="none" />
<polygon points="116.86,455.40 102.25,480.70 73.03,480.70 58.43,455.40 73.03,430.10 102.25,430.10" fill="#1b6684" stroke="none" />
<polygon points="116.86,506.00 102.25,531.30 73.03,531.30 58.43,506.00 73.03,480.70 102.25,480.70" fill="#1a6785" stroke="none" />
<polygon points="160.68,25.30 146.07,50.60 116.86,50.60 102.25,25.30 116.86,0.00 146.07,0.00" fill="#1baefc" stroke="none" />
<polygon points="160.68,75.90 146.07,101.20 116.86,101.20 102.25,75.90 116.86,50.60 146.07,50.60" fill="#2eb7ee" stroke="none" />
<polygon points="160.68,126.50 146.07,151.80 116.86,151.80 102.25,126.50 116.86,101.20 146.07,101.20" fill="#2fb1ec" stroke="none" />
<polygon points="160.68,177.10 146.07,202.40 116.86,202.40 102.25,177.10 116.86,151.80 146.07,151.80" fill="#30c9e0" stroke="none" />
<polygon points="160.68,227.70 146.07,253.00 116.86,253.00 102.25,227.70 116.86,202.40 146.07,202.40" fill="#b19a9d" stroke="none" />
<polygon points="160.68,278.30 146.07,303.60 116.86,303.60 102.25,278.30 116.86,253.00 146.07,253.00" fill="#f98274" stroke="none" />
<polygon points="160.68,328.90 146.07,354.20 116.86,354.20 102.25,328.90 116.86,303.60 146.07,303.60" fill="#cd6779" stroke="none" />
<polygon points="160.68,379.50 146.07,404.80 116.86,404.80 102.25,379.50 116.86,354.20 146.07,354.20" fill="#705a83" stroke="none" />
<polygon points="160.68,430.10 146.07,455.40 116.86,455.40 102.25,430.10 116.86,404.80 146.07,404.80" fill="#2b6384" stroke="none" />
<polygon points="160.68,480.70 146.07,506.00 116.86,506.00 102.25,480.70 116.86,455.40 146.07,455.40" fill="#1b6785" stroke="none" />
<polygon points="160.68,-25.30 146.07,0.00 116.86,0.00 102.25,-25.30 116.86,-50.60 146.07,-50.60" fill="#1cb1ff" stroke="none" />
<polygon points="204.50,0.00 189.89,25.30 160.68,25.30 146.07,0.00 160.68,-25.30 189.89,-25.30" fill="#1caefd" stroke="none" />
<polygon points="204.50,50.60 189.89,75.90 160.68,75.90 146.07,50.60 160.68,25.30 189.89,25.30" fill="#1eb3f9" stroke="none" />
<polygon points="204.50,101.20 189.89,126.50 160.68,126.50 146.07,101.20 160.68,75.90 189.89,75.90" fill="#36b3e9" stroke="none" />
<polygon points="204.50,151.80 189.89,177.10 160.68,177.10 146.07,151.80 160.68,126.50 189.89,126.50" fill="#8ac7a5" stroke="none" />
<polygon points="204.50,202.40 189.89,227.70 160.68,227.70 146.07,202.40 160.68,177.10 189.89,177.10" fill="#808e9e" stroke="none" />
<polygon points="204.50,253.00 189.89,278.30 160.68,278.30 146.07,253.00 160.68,227.70 189.89,227.70" fill="#c0697c" stroke="none" />
<polygon points="204.50,303.60 189.89,328.90 160.68,328.90 146.07,303.60 160.68,278.30 189.89,278.30" fill="#976080" stroke="none" />
<polygon points="204.50,354.20 189.89,379.50 160.68,379.50 146.07,354.20 160.68,328.90 189.89,328.90" fill="#6e5783" stroke="none" />
<polygon points="204.50,404.80 189.89,430.10 160.68,430.10 146.07,404.80 160.68,379.50 189.89,379.50" fill="#3c5f85" stroke="none" />
<polygon points="204.50,455.40 189.89,480.70 160.68,480.70 146.07,455.40 160.68,430.10 189.89,430.10" fill="#1e6685" stroke="none" />
<polygon points="204.50,506.00 189.89,531.30 160.68,531.30 146.07,506.00 160.68,480.70 189.89,480.70" fill="#1b6785" stroke="none" />
<polygon points="248.32,25.30 233.71,50.60 204.50,50.60 189.89,25.30 204.50,0.00 233.71,0.00" fill="#1eb5f9" stroke="none" />
<polygon points="248.32,75.90 233.71,101.20 204.50,101.20 189.89,75.90 204.50,50.60 233.71,50.60" fill="#40d4d7" stroke="none" />
<polygon points="248.32,126.50 233.71,151.80 204.50,151.80 189.89,126.50 204.50,101.20 233.71,101.20" fill="#4ccbd3" stroke="none" />
<polygon points="248.32,177.10 233.71,202.40 204.50,202.40 189.89,177.10 204.50,151.80 233.71,151.80" fill="#72cdbb" stroke="none" />
<polygon points="248.32,227.70 233.71,253.00 204.50,253.00 189.89,227.70 204.50,202.40 233.71,202.40" fill="#da9876" stroke="none" />
<polygon points="248.32,278.30 233.71,303.60 204.50,303.60 189.89,278.30 204.50,253.00 233.71,253.00" fill="#a25e7e" stroke="none" />
<polygon points="248.32,328.90 233.71,354.20 204.50,354.20 189.89,328.90 204.50,303.60 233.71,303.60" fill="#515e85" stroke="none" />
<polygon points="248.32,379.50 233.71,404.80 204.50,404.80 189.89,379.50 204.50,354.20 233.71,354.20" fill="#2b6384" stroke="none" />
<polygon points="248.32,430.10 233.71,455.40 204.50,455.40 189.89,430.10 204.50,404.80 233.71,404.80" fill="#1b6685" stroke="none" />
<polygon points="248.32,480.70 233.71,506.00 204.50,506.00 189.89,480.70 204.50,455.40 233.71,455.40" fill="#1b6785" stroke="none" />
<polygon points="248.32,-25.30 233.71,0.00 204.50,0.00 189.89,-25.30 204.50,-50.60 233.71,-50.60" fill="#1eb6f9" stroke="none" />
<polygon points="292.14,0.00 277.53,25.30 248.32,25.30 233.71,0.00 248.32,-25.30 277.53,-25.30" fill="#1fc4ee" stroke="none" />
<polygon points="292.14,50.60 277.53,75.90 248.32,75.90 233.71,50.60 248.32,25.30 277.53,25.30" fill="#71d0bf" stroke="none" />
<polygon points="292.14,101.20 277.53,126.50 248.32,126.50 233.71,101.20 248.32,75.90 277.53,75.90" fill="#5ccac7" stroke="none" />
<polygon points="292.14,151.80 277.53,177.10 248.32,177.10 233.71,151.80 248.32,126.50 277.53,126.50" fill="#baa596" stroke="none" />
<polygon points="292.14,202.40 277.53,227.70 248.32,227.70 233.71,202.40 248.32,177.10 277.53,177.10" fill="#da9b74" stroke="none" />
<polygon points="292.14,253.00 277.53,278.30 248.32,278.30 233.71,253.00 248.32,227.70 277.53,227.70" fill="#976180" stroke="none" />
<polygon points="292.14,303.60 277.53,328.90 248.32,328.90 233.71,303.60 248.32,278.30 277.53,278.30" fill="#8b5b80" stroke="none" />
<polygon points="292.14,354.20 277.53,379.50 248.32,379.50 233.71,354.20 248.32,328.90 277.53,328.90" fill="#1e6685" stroke="none" />
<polygon points="292.14,404.80 277.53,430.10 248.32,430.10 233.71,404.80 248.32,379.50 277.53,379.50" fill="#1a6785" stroke="none" />
<polygon points="292.14,455.40 277.53,480.70 248.32,480.70 233.71,455.40 248.32,430.10 277.53,430.10" fill="#1a6785" stroke="none" />
<polygon points="292.14,506.00 277.53,531.30 248.32,531.30 233.71,506.00 248.32,480.70 277.53,480.70" fill="#1a6685" stroke="none" />
<polygon points="335.96,25.30 321.35,50.60 292.14,50.60 277.53,25.30 292.14,0.00 321.35,0.00" fill="#29cee1" stroke="none" />
<polygon points="335.96,126.50 321.35,151.80 292.14,151.80 277.53,126.50 292.14,101.20 321.35,101.20" fill="#c5a58f" stroke="none" />
<polygon points="335.96,227.70 321.35,253.00 292.14,253.00 277.53,227.70 292.14,202.40 321.35,202.40" fill="#6d6582" stroke="none" />
<polygon points="335.96,278.30 321.35,303.60 292.14,303.60 277.53,278.30 292.14,253.00 321.35,253.00" fill="#565f82" stroke="none" />
<polygon points="335.96,379.50 321.35,404.80 292.14,404.80 277.53,379.50 292.14,354.20 321.35,354.20" fill="#1b6785" stroke="none" />
<polygon points="335.96,430.10 321.35,455.40 292.14,455.40 277.53,430.10 292.14,404.80 321.35,404.80" fill="#1b6886" stroke="none" />
<polygon points="335.96,-25.30 321.35,0.00 292.14,0.00 277.53,-25.30 292.14,-50.60 321.35,-50.60" fill="#23cde4" stroke="none" />
<polygon points="335.96,75.90 321.35,101.20 292.14,101.20 277.53,75.90 292.14,50.60 321.35,50.60" fill="#80b5b0" stroke="none" />
<polygon points="335.96,177.10 321.35,202.40 292.14,202.40 277.53,177.10 292.14,151.80 321.35,151.80" fill="#d67c7a" stroke="none" />
<polygon points="335.96,328.90 321.35,354.20 292.14,354.20 277.53,328.90 292.14,303.60 321.35,303.60" fill="#396085" stroke="none" />
<polygon points="335.96,480.70 321.35,506.00 292.14,506.00 277.53,480.70 292.14,455.40 321.35,455.40" fill="#1a6785" stroke="none" />
<polygon points="379.78,0.00 365.17,25.30 335.96,25.30 321.35,0.00 335.96,-25.30 365.17,-25.30" fill="#78ceaf" stroke="none" />
<polygon points="379.78,253.00 365.17,278.30 335.96,278.30 321.35,253.00 335.96,227.70 365.17,227.70" fill="#475e88" stroke="none" />
<polygon points="379.78,50.60 365.17,75.90 335.96,75.90 321.35,50.60 335.96,25.30 365.17,25.30" fill="#89beae" stroke="none" />
<polygon points="379.78,101.20 365.17,126.50 335.96,126.50 321.35,101.20 335.96,75.90 365.17,75.90" fill="#e28576" stroke="none" />
<polygon points="379.78,151.80 365.17,177.10 335.96,177.10 321.35,151.80 335.96,126.50 365.17,126.50" fill="#e26c74" stroke="none" />
<polygon points="379.78,202.40 365.17,227.70 335.96,227.70 321.35,202.40 335.96,177.10 365.17,177.10" fill="#745d80" stroke="none" />
<polygon points="379.78,303.60 365.17,328.90 335.96,328.90 321.35,303.60 335.96,278.30 365.17,278.30" fill="#1b6785" stroke="none" />
<polygon points="379.78,354.20 365.17,379.50 335.96,379.50 321.35,354.20 335.96,328.90 365.17,328.90" fill="#1a6885" stroke="none" />
<polygon points="379.78,404.80 365.17,430.10 335.96,430.10 321.35,404.80 335.96,379.50 365.17,379.50" fill="#1a6785" stroke="none" />
<polygon points="379.78,455.40 365.17,480.70 335.96,480.70 321.35,455.40 335.96,430.10 365.17,430.10" fill="#1b6785" stroke="none" />
<polygon points="379.78,506.00 365.17,531.30 335.96,531.30 321.35,506.00 335.96,480.70 365.17,480.70" fill="#1a6785" stroke="none" />
<polygon points="423.60,25.30 408.99,50.60 379.78,50.60 365.17,25.30 379.78,0.00 408.99,0.00" fill="#dbc373" stroke="none" />
<polygon points="423.60,75.90 408.99,101.20 379.78,101.20 365.17,75.90 379.78,50.60 408.99,50.60" fill="#ce9f7f" stroke="none" />
<polygon points="423.60,126.50 408.99,151.80 379.78,151.80 365.17,126.50 379.78,101.20 408.99,101.20" fill="#c3687a" stroke="none" />
<polygon points="423.60,177.10 408.99,202.40 379.78,202.40 365.17,177.10 379.78,151.80 408.99,151.80" fill="#ab637d" stroke="none" />
<polygon points="423.60,227.70 408.99,253.00 379.78,253.00 365.17,227.70 379.78,202.40 408.99,202.40" fill="#446284" stroke="none" />
<polygon points="423.60,278.30 408.99,303.60 379.78,303.60 365.17,278.30 379.78,253.00 408.99,253.00" fill="#276585" stroke="none" />
<polygon points="423.60,328.90 408.99,354.20 379.78,354.20 365.17,328.90 379.78,303.60 408.99,303.60" fill="#1b6785" stroke="none" />
<polygon points="423.60,379.50 408.99,404.80 379.78,404.80 365.17,379.50 379.78,354.20 408.99,354.20" fill="#1a6785" stroke="none" />
<polygon points="423.60,430.10 408.99,455.40 379.78,455.40 365.17,430.10 379.78,404.80 408.99,404.80" fill="#1a6785" stroke="none" />
<polygon points="423.60,480.70 408.99,506.00 379.78,506.00 365.17,480.70 379.78,455.40 408.99,455.40" fill="#1b6685" stroke="none" />
<polygon points="423.60,-25.30 408.99,0.00 379.78,0.00 365.17,-25.30 379.78,-50.60 408.99,-50.60" fill="#f5c15e" stroke="none" />
<polygon points="467.42,0.00 452.82,25.30 423.60,25.30 408.99,0.00 423.60,-25.30 452.82,-25.30" fill="#f4be60" stroke="none" />
<polygon points="467.42,50.60 452.82,75.90 423.60,75.90 408.99,50.60 423.60,25.30 452.82,25.30" fill="#e9a36a" stroke="none" />
<polygon points="467.42,101.20 452.82,126.50 423.60,126.50 408.99,101.20 423.60,75.90 452.82,75.90" fill="#b37179" stroke="none" />
<polygon points="467.42,151.80 452.82,177.10 423.60,177.10 408.99,151.80 423.60,126.50 452.82,126.50" fill="#c8647c" stroke="none" />
<polygon points="467.42,202.40 452.82,227.70 423.60,227.70 408.99,202.40 423.60,177.10 452.82,177.10" fill="#445f86" stroke="none" />
<polygon points="467.42,253.00 452.82,278.30 423.60,278.30 408.99,253.00 423.60,227.70 452.82,227.70" fill="#1b6785" stroke="none" />
<polygon points="467.42,303.60 452.82,328.90 423.60,328.90 408.99,303.60 423.60,278.30 452.82,278.30" fill="#1b6785" stroke="none" />
<polygon points="467.42,354.20 452.82,379.50 423.60,379.50 408.99,354.20 423.60,328.90 452.82,328.90" fill="#1a6785" stroke="none" />
<polygon points="467.42,404.80 452.82,430.10 423.60,430.10 408.99,404.80 423.60,379.50 452.82,379.50" fill="#1a6785" stroke="none" />
<polygon points="467.42,455.40 452.82,480.70 423.60,480.70 408.99,455.40 423.60,430.10 452.82,430.10" fill="#1a6685" stroke="none" />
<polygon points="467.42,506.00 452.82,531.30 423.60,531.30 408.99,506.00 423.60,480.70 452.82,480.70" fill="#1a6785" stroke="none" />
<polygon points="511.24,25.30 496.64,50.60 467.42,50.60 452.82,25.30 467.42,0.00 496.64,0.00" fill="#e89070" stroke="none" />
<polygon points="511.24,75.90 496.64,101.20 467.42,101.20 452.82,75.90 467.42,50.60 496.64,50.60" fill="#c37878" stroke="none" />
<polygon points="511.24,126.50 496.64,151.80 467.42,151.80 452.82,126.50 467.42,101.20 496.64,101.20" fill="#925f81" stroke="none" />
<polygon points="511.24,177.10 496.64,202.40 467.42,202.40 452.82,177.10 467.42,151.80 496.64,151.80" fill="#825785" stroke="none" />
<polygon points="511.24,227.70 496.64,253.00 467.42,253.00 452.82,227.70 467.42,202.40 496.64,202.40" fill="#256484" stroke="none" />
<polygon points="511.24,278.30 496.64,303.60 467.42,303.60 452.82,278.30 467.42,253.00 496.64,253.00" fill="#1b6786" stroke="none" />
<polygon points="511.24,328.90 496.64,354.20 467.42,354.20 452.82,328.90 467.42,303.60 496.64,303.60" fill="#1a6785" stroke="none" />
<polygon points="511.24,379.50 496.64,404.80 467.42,404.80 452.82,379.50 467.42,354.20 496.64,354.20" fill="#1b6685" stroke="none" />
<polygon points="511.24,430.10 496.64,455.40 467.42,455.40 452.82,430.10 467.42,404.80 496.64,404.80" fill="#1a6784" stroke="none" />
<polygon points="511.24,480.70 496.64,506.00 467.42,506.00 452.82,480.70 467.42,455.40 496.64,455.40" fill="#1a6785" stroke="none" />
<polygon points="511.24,-25.30 496.64,0.00 467.42,0.00 452.82,-25.30 467.42,-50.60 496.64,-50.60" fill="#f3c450" stroke="none" />
<polygon points="555.06,0.00 540.46,25.30 511.24,25.30 496.64,0.00 511.24,-25.30 540.46,-25.30" fill="#fb8a6f" stroke="none" />
<polygon points="555.06,50.60 540.46,75.90 511.24,75.90 496.64,50.60 511.24,25.30 540.46,25.30" fill="#be637b" stroke="none" />
<polygon points="555.06,101.20 540.46,126.50 511.24,126.50 496.64,101.20 511.24,75.90 540.46,75.90" fill="#cf657a" stroke="none" />
<polygon points="555.06,151.80 540.46,177.10 511.24,177.10 496.64,151.80 511.24,126.50 540.46,126.50" fill="#955b81" stroke="none" />
<polygon points="555.06,202.40 540.46,227.70 511.24,227.70 496.64,202.40 511.24,177.10 540.46,177.10" fill="#455f84" stroke="none" />
<polygon points="555.06,253.00 540.46,278.30 511.24,278.30 496.64,253.00 511.24,227.70 540.46,227.70" fill="#1e6684" stroke="none" />
<polygon points="555.06,303.60 540.46,328.90 511.24,328.90 496.64,303.60 511.24,278.30 540.46,278.30" fill="#1a6785" stroke="none" />
<polygon points="555.06,354.20 540.46,379.50 511.24,379.50 496.64,354.20 511.24,328.90 540.46,328.90" fill="#1a6785" stroke="none" />
<polygon points="555.06,404.80 540.46,430.10 511.24,430.10 496.64,404.80 511.24,379.50 540.46,379.50" fill="#1c6785" stroke="none" />
<polygon points="555.06,455.40 540.46,480.70 511.24,480.70 496.64,455.40 511.24,430.10 540.46,430.10" fill="#1a6785" stroke="none" />
<polygon points="555.06,506.00 540.46,531.30 511.24,531.30 496.64,506.00 511.24,480.70 540.46,480.70" fill="#1b6886" stroke="none" />
<polygon points="598.89,25.30 584.28,50.60 555.06,50.60 540.46,25.30 555.06,0.00 584.28,0.00" fill="#af607e" stroke="none" />
<polygon points="598.89,75.90 584.28,101.20 555.06,101.20 540.46,75.90 555.06,50.60 584.28,50.60" fill="#585b86" stroke="none" />
<polygon points="598.89,126.50 584.28,151.80 555.06,151.80 540.46,126.50 555.06,101.20 584.28,101.20" fill="#8b5883" stroke="none" />
<polygon points="598.89,177.10 584.28,202.40 555.06,202.40 540.46,177.10 555.06,151.80 584.28,151.80" fill="#5a5d84" stroke="none" />
<polygon points="598.89,227.70 584.28,253.00 555.06,253.00 540.46,227.70 555.06,202.40 584.28,202.40" fill="#1c6685" stroke="none" />
<polygon points="598.89,278.30 584.28,303.60 555.06,303.60 540.46,278.30 555.06,253.00 584.28,253.00" fill="#1b6785" stroke="none" />
<polygon points="598.89,328.90 584.28,354.20 555.06,354.20 540.46,328.90 555.06,303.60 584.28,303.60" fill="#1b6685" stroke="none" />
<polygon points="598.89,379.50 584.28,404.80 555.06,404.80 540.46,379.50 555.06,354.20 584.28,354.20" fill="#1b6786" stroke="none" />
<polygon points="598.89,430.10 584.28,455.40 555.06,455.40 540.46,430.10 555.06,404.80 584.28,404.80" fill="#1b6785" stroke="none" />
<polygon points="598.89,480.70 584.28,506.00 555.06,506.00 540.46,480.70 555.06,455.40 584.28,455.40" fill="#1b6785" stroke="none" />
<polygon points="598.89,-25.30 584.28,0.00 555.06,0.00 540.46,-25.30 555.06,-50.60 584.28,-50.60" fill="#d86177" stroke="none" />
<polygon points="642.71,0.00 628.10,25.30 598.89,25.30 584.28,0.00 598.89,-25.30 628.10,-25.30" fill="#ae647e" stroke="none" />
<polygon points="642.71,50.60 628.10,75.90 598.89,75.90 584.28,50.60 598.89,25.30 628.10,25.30" fill="#665b84" stroke="none" />
<polygon points="642.71,101.20 628.10,126.50 598.89,126.50 584.28,101.20 598.89,75.90 628.10,75.90" fill="#4d5f84" stroke="none" />
<polygon points="642.71,151.80 628.10,177.10 598.89,177.10 584.28,151.80 598.89,126.50 628.10,126.50" fill="#685786" stroke="none" />
<polygon points="642.71,202.40 628.10,227.70 598.89,227.70 584.28,202.40 598.89,177.10 628.10,177.10" fill="#246585" stroke="none" />
<polygon points="642.71,253.00 628.10,278.30 598.89,278.30 584.28,253.00 598.89,227.70 628.10,227.70" fill="#1a6785" stroke="none" />
<polygon points="642.71,303.60 628.10,328.90 598.89,328.90 584.28,303.60 598.89,278.30 628.10,278.30" fill="#1a6785" stroke="none" />
<polygon points="642.71,354.20 628.10,379.50 598.89,379.50 584.28,354.20 598.89,328.90 628.10,328.90" fill="#1a6685" stroke="none" />
<polygon points="642.71,404.80 628.10,430.10 598.89,430.10 584.28,404.80 598.89,379.50 628.10,379.50" fill="#1b6785" stroke="none" />
<polygon points="642.71,506.00 628.10,531.30 598.89,531.30 584.28,506.00 598.89,480.70 628.10,480.70" fill="#1b6786" stroke="none" />
<polygon points="642.71,455.40 628.10,480.70 598.89,480.70 584.28,455.40 598.89,430.10 628.10,430.10" fill="#1a6785" stroke="none" />
<polygon points="686.53,25.30 671.92,50.60 642.71,50.60 628.10,25.30 642.71,0.00 671.92,0.00" fill="#875a84" stroke="none" />
<polygon points="686.53,126.50 671.92,151.80 642.71,151.80 628.10,126.50 642.71,101.20 671.92,101.20" fill="#286384" stroke="none" />
<polygon points="686.53,278.30 671.92,303.60 642.71,303.60 628.10,278.30 642.71,253.00 671.92,253.00" fill="#1c6684" stroke="none" />
<polygon points="686.53,379.50 671.92,404.80 642.71,404.80 628.10,379.50 642.71,354.20 671.92,354.20" fill="#1b6685" stroke="none" />
<polygon points="686.53,-25.30 671.92,0.00 642.71,0.00 628.10,-25.30 642.71,-50.60 671.92,-50.60" fill="#725686" stroke="none" />
<polygon points="686.53,75.90 671.92,101.20 642.71,101.20 628.10,75.90 642.71,50.60 671.92,50.60" fill="#5c5f84" stroke="none" />
<polygon points="686.53,177.10 671.92,202.40 642.71,202.40 628.10,177.10 642.71,151.80 671.92,151.80" fill="#1f6684" stroke="none" />
<polygon points="686.53,227.70 671.92,253.00 642.71,253.00 628.10,227.70 642.71,202.40 671.92,202.40" fill="#1a6684" stroke="none" />
<polygon points="686.53,328.90 671.92,354.20 642.71,354.20 628.10,328.90 642.71,303.60 671.92,303.60" fill="#1a6685" stroke="none" />
<polygon points="686.53,430.10 671.92,455.40 642.71,455.40 628.10,430.10 642.71,404.80 671.92,404.80" fill="#1a6785" stroke="none" />
<polygon points="686.53,480.70 671.92,506.00 642.71,506.00 628.10,480.70 642.71,455.40 671.92,455.40" fill="#1b6785" stroke="none" />
<polygon points="730.35,0.00 715.74,25.30 686.53,25.30 671.92,0.00 686.53,-25.30 715.74,-25.30" fill="#735686" stroke="none" />
<polygon points="730.35,50.60 715.74,75.90 686.53,75.90 671.92,50.60 686.53,25.30 715.74,25.30" fill="#6d5884" stroke="none" />
<polygon points="730.35,101.20 715.74,126.50 686.53,126.50 671.92,101.20 686.53,75.90 715.74,75.90" fill="#306384" stroke="none" />
<polygon points="730.35,151.80 715.74,177.10 686.53,177.10 671.92,151.80 686.53,126.50 715.74,126.50" fill="#1b6685" stroke="none" />
<polygon points="730.35,202.40 715.74,227.70 686.53,227.70 671.92,202.40 686.53,177.10 715.74,177.10" fill="#1a6785" stroke="none" />
<polygon points="730.35,253.00 715.74,278.30 686.53,278.30 671.92,253.00 686.53,227.70 715.74,227.70" fill="#1a6685" stroke="none" />
<polygon points="730.35,303.60 715.74,328.90 686.53,328.90 671.92,303.60 686.53,278.30 715.74,278.30" fill="#1b6685" stroke="none" />
<polygon points="730.35,354.20 715.74,379.50 686.53,379.50 671.92,354.20 686.53,328.90 715.74,328.90" fill="#1a6685" stroke="none" />
<polygon points="730.35,404.80 715.74,430.10 686.53,430.10 671.92,404.80 686.53,379.50 715.74,379.50" fill="#1a6785" stroke="none" />
<polygon points="730.35,455.40 715.74,480.70 686.53,480.70 671.92,455.40 686.53,430.10 715.74,430.10" fill="#1b6785" stroke="none" />
<polygon points="730.35,506.00 715.74,531.30 686.53,531.30 671.92,506.00 686.53,480.70 715.74,480.70" fill="#1b6785" stroke="none" />
<polygon points="774.17,25.30 759.56,50.60 730.35,50.60 715.74,25.30 730.35,0.00 759.56,0.00" fill="#655886" stroke="none" />
<polygon points="774.17,75.90 759.56,101.20 730.35,101.20 715.74,75.90 730.35,50.60 759.56,50.60" fill="#396187" stroke="none" />
<polygon points="774.17,126.50 759.56,151.80 730.35,151.80 715.74,126.50 730.35,101.20 759.56,101.20" fill="#1c6785" stroke="none" />
<polygon points="774.17,177.10 759.56,202.40 730.35,202.40 715.74,177.10 730.35,151.80 759.56,151.80" fill="#1a6785" stroke="none" />
<polygon points="774.17,227.70 759.56,253.00 730.35,253.00 715.74,227.70 730.35,202.40 759.56,202.40" fill="#1a6685" stroke="none" />
<polygon points="774.17,278.30 759.56,303.60 730.35,303.60 715.74,278.30 730.35,253.00 759.56,253.00" fill="#1b6785" stroke="none" />
<polygon points="774.17,328.90 759.56,354.20 730.35,354.20 715.74,328.90 730.35,303.60 759.56,303.60" fill="#1a6785" stroke="none" />
<polygon points="774.17,379.50 759.56,404.80 730.35,404.80 715.74,379.50 730.35,354.20 759.56,354.20" fill="#1c6785" stroke="none" />
<polygon points="774.17,430.10 759.56,455.40 730.35,455.40 715.74,430.10 730.35,404.80 759.56,404.80" fill="#1a6785" stroke="none" />
<polygon points="774.17,480.70 759.56,506.00 730.35,506.00 715.74,480.70 730.35,455.40 759.56,455.40" fill="#1b6886" stroke="none" />
<polygon points="774.17,-25.30 759.56,0.00 730.35,0.00 715.74,-25.30 730.35,-50.60 759.56,-50.60" fill="#755586" stroke="none" />
<polygon points="817.99,0.00 803.38,25.30 774.17,25.30 759.56,0.00 774.17,-25.30 803.38,-25.30" fill="#416086" stroke="none" />
<polygon points="817.99,50.60 803.38,75.90 774.17,75.90 759.56,50.60 774.17,25.30 803.38,25.30" fill="#326284" stroke="none" />
<polygon points="817.99,101.20 803.38,126.50 774.17,126.50 759.56,101.20 774.17,75.90 803.38,75.90" fill="#206685" stroke="none" />
<polygon points="817.99,151.80 803.38,177.10 774.17,177.10 759.56,151.80 774.17,126.50 803.38,126.50" fill="#1a6785" stroke="none" />
<polygon points="817.99,202.40 803.38,227.70 774.17,227.70 759.56,202.40 774.17,177.10 803.38,177.10" fill="#1a6785" stroke="none" />
<polygon points="817.99,253.00 803.38,278.30 774.17,278.30 759.56,253.00 774.17,227.70 803.38,227.70" fill="#1a6685" stroke="none" />
<polygon points="817.99,303.60 803.38,328.90 774.17,328.90 759.56,303.60 774.17,278.30 803.38,278.30" fill="#1c6685" stroke="none" />
<polygon points="817.99,354.20 803.38,379.50 774.17,379.50 759.56,354.20 774.17,328.90 803.38,328.90" fill="#1b6886" stroke="none" />
<polygon points="817.99,404.80 803.38,430.10 774.17,430.10 759.56,404.80 774.17,379.50 803.38,379.50" fill="#1a6685" stroke="none" />
<polygon points="817.99,455.40 803.38,480.70 774.17,480.70 759.56,455.40 774.17,430.10 803.38,430.10" fill="#1b6785" stroke="none" />
<polygon points="817.99,506.00 803.38,531.30 774.17,531.30 759.56,506.00 774.17,480.70 803.38,480.70" fill="#1a6785" stroke="none" />
<polygon points="861.81,25.30 847.20,50.60 817.99,50.60 803.38,25.30 817.99,0.00 847.20,0.00" fill="#1b6685" stroke="none" />
<polygon points="861.81,75.90 847.20,101.20 817.99,101.20 803.38,75.90 817.99,50.60 847.20,50.60" fill="#1a6785" stroke="none" />
<polygon points="861.81,126.50 847.20,151.80 817.99,151.80 803.38,126.50 817.99,101.20 847.20,101.20" fill="#1a6685" stroke="none" />
<polygon points="861.81,177.10 847.20,202.40 817.99,202.40 803.38,177.10 817.99,151.80 847.20,151.80" fill="#1a6685" stroke="none" />
<polygon points="861.81,227.70 847.20,253.00 817.99,253.00 803.38,227.70 817.99,202.40 847.20,202.40" fill="#1a6785" stroke="none" />
<polygon points="861.81,278.30 847.20,303.60 817.99,303.60 803.38,278.30 817.99,253.00 847.20,253.00" fill="#1a6785" stroke="none" />
<polygon points="861.81,328.90 847.20,354.20 817.99,354.20 803.38,328.90 817.99,303.60 847.20,303.60" fill="#1a6785" stroke="none" />
<polygon points="861.81,379.50 847.20,404.80 817.99,404.80 803.38,379.50 817.99,354.20 847.20,354.20" fill="#1b6785" stroke="none" />
<polygon points="861.81,430.10 847.20,455.40 817.99,455.40 803.38,430.10 817.99,404.80 847.20,404.80" fill="#1a6685" stroke="none" />
<polygon points="861.81,480.70 847.20,506.00 817.99,506.00 803.38,480.70 817.99,455.40 847.20,455.40" fill="#1a6684" stroke="none" />
<polygon points="861.81,-25.30 847.20,0.00 817.99,0.00 803.38,-25.30 817.99,-50.60 847.20,-50.60" fill="#1b6685" stroke="none" />
<polygon points="905.63,0.00 891.02,25.30 861.81,25.30 847.20,0.00 861.81,-25.30 891.02,-25.30" fill="#1b6684" stroke="none" />
<polygon points="905.63,50.60 891.02,75.90 861.81,75.90 847.20,50.60 861.81,25.30 891.02,25.30" fill="#1b6785" stroke="none" />
<polygon points="905.63,101.20 891.02,126.50 861.81,126.50 847.20,101.20 861.81,75.90 891.02,75.90" fill="#1a6785" stroke="none" />
<polygon points="905.63,151.80 891.02,177.10 861.81,177.10 847.20,151.80 861.81,126.50 891.02,126.50" fill="#1a6785" stroke="none" />
<polygon points="905.63,202.40 891.02,227.70 861.81,227.70 847.20,202.40 861.81,177.10 891.02,177.10" fill="#1a6785" stroke="none" />
<polygon points="905.63,253.00 891.02,278.30 861.81,278.30 847.20,253.00 861.81,227.70 891.02,227.70" fill="#1b6685" stroke="none" />
<polygon points="905.63,303.60 891.02,328.90 861.81,328.90 847.20,303.60 861.81,278.30 891.02,278.30" fill="#1b6685" stroke="none" />
<polygon points="905.63,354.20 891.02,379.50 861.81,379.50 847.20,354.20 861.81,328.90 891.02,328.90" fill="#1b6784" stroke="none" />
<polygon points="905.63,404.80 891.02,430.10 861.81,430.10 847.20,404.80 861.81,379.50 891.02,379.50" fill="#1a6685" stroke="none" />
<polygon points="905.63,455.40 891.02,480.70 861.81,480.70 847.20,455.40 861.81,430.10 891.02,430.10" fill="#1b6785" stroke="none" />
<polygon points="905.63,506.00 891.02,531.30 861.81,531.30 847.20,506.00 861.81,480.70 891.02,480.70" fill="#1b6684" stroke="none" />
<polygon points="949.45,25.30 934.85,50.60 905.63,50.60 891.02,25.30 905.63,0.00 934.85,0.00" fill="#1b6886" stroke="none" />
<polygon points="949.45,75.90 934.85,101.20 905.63,101.20 891.02,75.90 905.63,50.60 934.85,50.60" fill="#1b6886" stroke="none" />
<polygon points="949.45,126.50 934.85,151.80 905.63,151.80 891.02,126.50 905.63,101.20 934.85,101.20" fill="#1b6886" stroke="none" />
<polygon points="949.45,177.10 934.85,202.40 905.63,202.40 891.02,177.10 905.63,151.80 934.85,151.80" fill="#1b6886" stroke="none" />
<polygon points="949.45,227.70 934.85,253.00 905.63,253.00 891.02,227.70 905.63,202.40 934.85,202.40" fill="#1b6685" stroke="none" />
<polygon points="949.45,278.30 934.85,303.60 905.63,303.60 891.02,278.30 905.63,253.00 934.85,253.00" fill="#1a6785" stroke="none" />
<polygon points="949.45,328.90 934.85,354.20 905.63,354.20 891.02,328.90 905.63,303.60 934.85,303.60" fill="#1a6785" stroke="none" />
<polygon points="949.45,379.50 934.85,404.80 905.63,404.80 891.02,379.50 905.63,354.20 934.85,354.20" fill="#196886" stroke="none" />
<polygon points="949.45,430.10 934.85,455.40 905.63,455.40 891.02,430.10 905.63,404.80 934.85,404.80" fill="#1b6685" stroke="none" />
<polygon points="949.45,480.70 934.85,506.00 905.63,506.00 891.02,480.70 905.63,455.40 934.85,455.40" fill="#1b6685" stroke="none" />
</svg>